<?xml version="1.0" encoding="UTF-8" standalone="no"?>
<!DOCTYPE svg PUBLIC "-//W3C//DTD SVG 1.1//EN"
 "http://www.w3.org/Graphics/SVG/1.1/DTD/svg11.dtd">
<!-- Generated by graphviz version 2.43.0 (0)
 -->
<!-- Title: controllers_diagram Pages: 1 -->
<svg width="645pt" height="657pt"
 viewBox="0.00 0.00 645.00 657.00" xmlns="http://www.w3.org/2000/svg" xmlns:xlink="http://www.w3.org/1999/xlink">
<g id="graph0" class="graph" transform="scale(1 1) rotate(0) translate(4 653)">
<title>controllers_diagram</title>
<polygon fill="transparent" stroke="transparent" points="-4,4 -4,-653 641,-653 641,4 -4,4"/>
<!-- _diagram_info -->
<g id="node1" class="node">
<title>_diagram_info</title>
<text text-anchor="start" x="386" y="-207.6" font-family="Times,serif" font-size="13.00">Controllers diagram</text>
<text text-anchor="start" x="386" y="-193.6" font-family="Times,serif" font-size="13.00">Date: Jun 04 2025 &#45; 11:09</text>
<text text-anchor="start" x="386" y="-179.6" font-family="Times,serif" font-size="13.00">Migration version: 20250520101718</text>
<text text-anchor="start" x="386" y="-165.6" font-family="Times,serif" font-size="13.00">Generated by RailRoady 1.6.0</text>
<text text-anchor="start" x="386" y="-151.6" font-family="Times,serif" font-size="13.00">http://railroady.prestonlee.com</text>
</g>
<!-- ApiController -->
<g id="node2" class="node">
<title>ApiController</title>
<path fill="none" stroke="black" d="M390,-0.5C390,-0.5 512,-0.5 512,-0.5 518,-0.5 524,-6.5 524,-12.5 524,-12.5 524,-97.5 524,-97.5 524,-103.5 518,-109.5 512,-109.5 512,-109.5 390,-109.5 390,-109.5 384,-109.5 378,-103.5 378,-97.5 378,-97.5 378,-12.5 378,-12.5 378,-6.5 384,-0.5 390,-0.5"/>
<text text-anchor="middle" x="451" y="-94.3" font-family="Times,serif" font-size="14.00">ApiController</text>
<polyline fill="none" stroke="black" points="378,-86.5 524,-86.5 "/>
<polyline fill="none" stroke="black" points="378,-62.5 524,-62.5 "/>
<polyline fill="none" stroke="black" points="378,-38.5 524,-38.5 "/>
<text text-anchor="start" x="386" y="-23.3" font-family="Times,serif" font-size="14.00">_layout</text>
<text text-anchor="start" x="386" y="-8.3" font-family="Times,serif" font-size="14.00">_layout_from_proc</text>
</g>
<!-- ApplicationController -->
<g id="node3" class="node">
<title>ApplicationController</title>
<path fill="none" stroke="black" d="M12,-18.5C12,-18.5 158,-18.5 158,-18.5 164,-18.5 170,-24.5 170,-30.5 170,-30.5 170,-115.5 170,-115.5 170,-121.5 164,-127.5 158,-127.5 158,-127.5 12,-127.5 12,-127.5 6,-127.5 0,-121.5 0,-115.5 0,-115.5 0,-30.5 0,-30.5 0,-24.5 6,-18.5 12,-18.5"/>
<text text-anchor="middle" x="85" y="-112.3" font-family="Times,serif" font-size="14.00">ApplicationController</text>
<polyline fill="none" stroke="black" points="0,-104.5 170,-104.5 "/>
<polyline fill="none" stroke="black" points="0,-80.5 170,-80.5 "/>
<polyline fill="none" stroke="black" points="0,-56.5 170,-56.5 "/>
<text text-anchor="start" x="8" y="-41.3" font-family="Times,serif" font-size="14.00">_layout</text>
<text text-anchor="start" x="8" y="-26.3" font-family="Times,serif" font-size="14.00">_layout_from_proc</text>
</g>
<!-- CategoriesController -->
<g id="node4" class="node">
<title>CategoriesController</title>
<path fill="none" stroke="black" d="M174,-378.5C174,-378.5 317,-378.5 317,-378.5 323,-378.5 329,-384.5 329,-390.5 329,-390.5 329,-489.5 329,-489.5 329,-495.5 323,-501.5 317,-501.5 317,-501.5 174,-501.5 174,-501.5 168,-501.5 162,-495.5 162,-489.5 162,-489.5 162,-390.5 162,-390.5 162,-384.5 168,-378.5 174,-378.5"/>
<text text-anchor="middle" x="245.5" y="-486.3" font-family="Times,serif" font-size="14.00">CategoriesController</text>
<polyline fill="none" stroke="black" points="162,-478.5 329,-478.5 "/>
<text text-anchor="start" x="170" y="-463.3" font-family="Times,serif" font-size="14.00">auswahl</text>
<text text-anchor="start" x="170" y="-448.3" font-family="Times,serif" font-size="14.00">index</text>
<polyline fill="none" stroke="black" points="162,-440.5 329,-440.5 "/>
<polyline fill="none" stroke="black" points="162,-416.5 329,-416.5 "/>
<text text-anchor="start" x="170" y="-401.3" font-family="Times,serif" font-size="14.00">_layout</text>
<text text-anchor="start" x="170" y="-386.3" font-family="Times,serif" font-size="14.00">_layout_from_proc</text>
</g>
<!-- GameController -->
<g id="node5" class="node">
<title>GameController</title>
<path fill="none" stroke="black" d="M174,-162.5C174,-162.5 326,-162.5 326,-162.5 332,-162.5 338,-168.5 338,-174.5 338,-174.5 338,-333.5 338,-333.5 338,-339.5 332,-345.5 326,-345.5 326,-345.5 174,-345.5 174,-345.5 168,-345.5 162,-339.5 162,-333.5 162,-333.5 162,-174.5 162,-174.5 162,-168.5 168,-162.5 174,-162.5"/>
<text text-anchor="middle" x="250" y="-330.3" font-family="Times,serif" font-size="14.00">GameController</text>
<polyline fill="none" stroke="black" points="162,-322.5 338,-322.5 "/>
<text text-anchor="start" x="170" y="-307.3" font-family="Times,serif" font-size="14.00">answer</text>
<text text-anchor="start" x="170" y="-292.3" font-family="Times,serif" font-size="14.00">index</text>
<text text-anchor="start" x="170" y="-277.3" font-family="Times,serif" font-size="14.00">next_question</text>
<text text-anchor="start" x="170" y="-262.3" font-family="Times,serif" font-size="14.00">result</text>
<text text-anchor="start" x="170" y="-247.3" font-family="Times,serif" font-size="14.00">start</text>
<polyline fill="none" stroke="black" points="162,-239.5 338,-239.5 "/>
<polyline fill="none" stroke="black" points="162,-215.5 338,-215.5 "/>
<text text-anchor="start" x="170" y="-200.3" font-family="Times,serif" font-size="14.00">_layout</text>
<text text-anchor="start" x="170" y="-185.3" font-family="Times,serif" font-size="14.00">_layout_from_proc</text>
<text text-anchor="start" x="170" y="-170.3" font-family="Times,serif" font-size="14.00">load_random_question</text>
</g>
<!-- TasksController -->
<g id="node6" class="node">
<title>TasksController</title>
<path fill="none" stroke="black" d="M372,-378.5C372,-378.5 494,-378.5 494,-378.5 500,-378.5 506,-384.5 506,-390.5 506,-390.5 506,-594.5 506,-594.5 506,-600.5 500,-606.5 494,-606.5 494,-606.5 372,-606.5 372,-606.5 366,-606.5 360,-600.5 360,-594.5 360,-594.5 360,-390.5 360,-390.5 360,-384.5 366,-378.5 372,-378.5"/>
<text text-anchor="middle" x="433" y="-591.3" font-family="Times,serif" font-size="14.00">TasksController</text>
<polyline fill="none" stroke="black" points="360,-583.5 506,-583.5 "/>
<text text-anchor="start" x="368" y="-568.3" font-family="Times,serif" font-size="14.00">create</text>
<text text-anchor="start" x="368" y="-553.3" font-family="Times,serif" font-size="14.00">destroy</text>
<text text-anchor="start" x="368" y="-538.3" font-family="Times,serif" font-size="14.00">edit</text>
<text text-anchor="start" x="368" y="-523.3" font-family="Times,serif" font-size="14.00">index</text>
<text text-anchor="start" x="368" y="-508.3" font-family="Times,serif" font-size="14.00">new</text>
<text text-anchor="start" x="368" y="-493.3" font-family="Times,serif" font-size="14.00">show</text>
<text text-anchor="start" x="368" y="-478.3" font-family="Times,serif" font-size="14.00">update</text>
<polyline fill="none" stroke="black" points="360,-470.5 506,-470.5 "/>
<polyline fill="none" stroke="black" points="360,-446.5 506,-446.5 "/>
<text text-anchor="start" x="368" y="-431.3" font-family="Times,serif" font-size="14.00">_layout</text>
<text text-anchor="start" x="368" y="-416.3" font-family="Times,serif" font-size="14.00">_layout_from_proc</text>
<text text-anchor="start" x="368" y="-401.3" font-family="Times,serif" font-size="14.00">set_task</text>
<text text-anchor="start" x="368" y="-386.3" font-family="Times,serif" font-size="14.00">task_params</text>
</g>
<!-- UsersController -->
<g id="node7" class="node">
<title>UsersController</title>
<path fill="none" stroke="black" d="M192,-540.5C192,-540.5 314,-540.5 314,-540.5 320,-540.5 326,-546.5 326,-552.5 326,-552.5 326,-636.5 326,-636.5 326,-642.5 320,-648.5 314,-648.5 314,-648.5 192,-648.5 192,-648.5 186,-648.5 180,-642.5 180,-636.5 180,-636.5 180,-552.5 180,-552.5 180,-546.5 186,-540.5 192,-540.5"/>
<text text-anchor="middle" x="253" y="-633.3" font-family="Times,serif" font-size="14.00">UsersController</text>
<polyline fill="none" stroke="black" points="180,-625.5 326,-625.5 "/>
<text text-anchor="start" x="188" y="-610.3" font-family="Times,serif" font-size="14.00">profile</text>
<polyline fill="none" stroke="black" points="180,-602.5 326,-602.5 "/>
<polyline fill="none" stroke="black" points="180,-578.5 326,-578.5 "/>
<text text-anchor="start" x="188" y="-563.3" font-family="Times,serif" font-size="14.00">_layout</text>
<text text-anchor="start" x="188" y="-548.3" font-family="Times,serif" font-size="14.00">_layout_from_proc</text>
</g>
<!-- WelcomeController -->
<g id="node8" class="node">
<title>WelcomeController</title>
<path fill="none" stroke="black" d="M210,-18.5C210,-18.5 339,-18.5 339,-18.5 345,-18.5 351,-24.5 351,-30.5 351,-30.5 351,-114.5 351,-114.5 351,-120.5 345,-126.5 339,-126.5 339,-126.5 210,-126.5 210,-126.5 204,-126.5 198,-120.5 198,-114.5 198,-114.5 198,-30.5 198,-30.5 198,-24.5 204,-18.5 210,-18.5"/>
<text text-anchor="middle" x="274.5" y="-111.3" font-family="Times,serif" font-size="14.00">WelcomeController</text>
<polyline fill="none" stroke="black" points="198,-103.5 351,-103.5 "/>
<text text-anchor="start" x="206" y="-88.3" font-family="Times,serif" font-size="14.00">index</text>
<polyline fill="none" stroke="black" points="198,-80.5 351,-80.5 "/>
<polyline fill="none" stroke="black" points="198,-56.5 351,-56.5 "/>
<text text-anchor="start" x="206" y="-41.3" font-family="Times,serif" font-size="14.00">_layout</text>
<text text-anchor="start" x="206" y="-26.3" font-family="Times,serif" font-size="14.00">_layout_from_proc</text>
</g>
</g>
</svg>
