<?xml version="1.0" encoding="UTF-8" standalone="no"?>
<!DOCTYPE svg PUBLIC "-//W3C//DTD SVG 1.1//EN"
 "http://www.w3.org/Graphics/SVG/1.1/DTD/svg11.dtd">
<!-- Generated by graphviz version 2.43.0 (0)
 -->
<!-- Title: models_diagram Pages: 1 -->
<svg width="1535pt" height="378pt"
 viewBox="0.00 0.00 1535.00 378.00" xmlns="http://www.w3.org/2000/svg" xmlns:xlink="http://www.w3.org/1999/xlink">
<g id="graph0" class="graph" transform="scale(1 1) rotate(0) translate(4 374)">
<title>models_diagram</title>
<polygon fill="transparent" stroke="transparent" points="-4,4 -4,-374 1531,-374 1531,4 -4,4"/>
<!-- _diagram_info -->
<g id="node1" class="node">
<title>_diagram_info</title>
<text text-anchor="start" x="8" y="-303.6" font-family="Times,serif" font-size="13.00">Models diagram</text>
<text text-anchor="start" x="8" y="-289.6" font-family="Times,serif" font-size="13.00">Date: Jun 04 2025 &#45; 11:09</text>
<text text-anchor="start" x="8" y="-275.6" font-family="Times,serif" font-size="13.00">Migration version: 20250520101718</text>
<text text-anchor="start" x="8" y="-261.6" font-family="Times,serif" font-size="13.00">Generated by RailRoady 1.6.0</text>
<text text-anchor="start" x="8" y="-247.6" font-family="Times,serif" font-size="13.00">http://railroady.prestonlee.com</text>
</g>
<!-- ApplicationRecord -->
<g id="node2" class="node">
<title>ApplicationRecord</title>
<ellipse fill="none" stroke="black" cx="372.5" cy="-279" rx="95.58" ry="18"/>
<text text-anchor="middle" x="372.5" y="-275.3" font-family="Times,serif" font-size="14.00">ApplicationRecord</text>
</g>
<!-- Game -->
<g id="node3" class="node">
<title>Game</title>
<path fill="none" stroke="black" d="M498,-218.5C498,-218.5 809,-218.5 809,-218.5 815,-218.5 821,-224.5 821,-230.5 821,-230.5 821,-327.5 821,-327.5 821,-333.5 815,-339.5 809,-339.5 809,-339.5 498,-339.5 498,-339.5 492,-339.5 486,-333.5 486,-327.5 486,-327.5 486,-230.5 486,-230.5 486,-224.5 492,-218.5 498,-218.5"/>
<text text-anchor="middle" x="653.5" y="-324.3" font-family="Times,serif" font-size="14.00">Game</text>
<polyline fill="none" stroke="black" points="486,-316.5 821,-316.5 "/>
<text text-anchor="start" x="494" y="-301.3" font-family="Times,serif" font-size="14.00">id :bigint</text>
<text text-anchor="start" x="494" y="-286.3" font-family="Times,serif" font-size="14.00">score :integer</text>
<text text-anchor="start" x="494" y="-271.3" font-family="Times,serif" font-size="14.00">active :boolean</text>
<text text-anchor="start" x="494" y="-256.3" font-family="Times,serif" font-size="14.00">created_at :timestamp(6) without time zone</text>
<text text-anchor="start" x="494" y="-241.3" font-family="Times,serif" font-size="14.00">updated_at :timestamp(6) without time zone</text>
<text text-anchor="start" x="494" y="-226.3" font-family="Times,serif" font-size="14.00">user_id :bigint</text>
</g>
<!-- User -->
<g id="node6" class="node">
<title>User</title>
<path fill="none" stroke="black" d="M629,-0.5C629,-0.5 1030,-0.5 1030,-0.5 1036,-0.5 1042,-6.5 1042,-12.5 1042,-12.5 1042,-139.5 1042,-139.5 1042,-145.5 1036,-151.5 1030,-151.5 1030,-151.5 629,-151.5 629,-151.5 623,-151.5 617,-145.5 617,-139.5 617,-139.5 617,-12.5 617,-12.5 617,-6.5 623,-0.5 629,-0.5"/>
<text text-anchor="middle" x="829.5" y="-136.3" font-family="Times,serif" font-size="14.00">User</text>
<polyline fill="none" stroke="black" points="617,-128.5 1042,-128.5 "/>
<text text-anchor="start" x="625" y="-113.3" font-family="Times,serif" font-size="14.00">id :bigint</text>
<text text-anchor="start" x="625" y="-98.3" font-family="Times,serif" font-size="14.00">email :character varying</text>
<text text-anchor="start" x="625" y="-83.3" font-family="Times,serif" font-size="14.00">encrypted_password :character varying</text>
<text text-anchor="start" x="625" y="-68.3" font-family="Times,serif" font-size="14.00">reset_password_token :character varying</text>
<text text-anchor="start" x="625" y="-53.3" font-family="Times,serif" font-size="14.00">reset_password_sent_at :timestamp(6) without time zone</text>
<text text-anchor="start" x="625" y="-38.3" font-family="Times,serif" font-size="14.00">remember_created_at :timestamp(6) without time zone</text>
<text text-anchor="start" x="625" y="-23.3" font-family="Times,serif" font-size="14.00">created_at :timestamp(6) without time zone</text>
<text text-anchor="start" x="625" y="-8.3" font-family="Times,serif" font-size="14.00">updated_at :timestamp(6) without time zone</text>
</g>
<!-- Game&#45;&gt;User -->
<g id="edge1" class="edge">
<title>Game&#45;&gt;User</title>
<path fill="none" stroke="#8ab7de" d="M712.59,-210.51C726.99,-194.07 742.54,-176.31 757.46,-159.27"/>
<polygon fill="#8ab7de" stroke="#8ab7de" points="712.42,-210.71 702.44,-215.27 709.12,-214.48 705.83,-218.24 705.83,-218.24 705.83,-218.24 709.12,-214.48 709.21,-221.2 712.42,-210.71 712.42,-210.71"/>
<polygon fill="#8ab7de" stroke="#8ab7de" points="757.68,-159.03 767.65,-154.47 760.97,-155.26 764.26,-151.5 764.26,-151.5 764.26,-151.5 760.97,-155.26 760.88,-148.54 757.68,-159.03 757.68,-159.03"/>
</g>
<!-- Question -->
<g id="node4" class="node">
<title>Question</title>
<path fill="none" stroke="black" d="M1204,-188.5C1204,-188.5 1515,-188.5 1515,-188.5 1521,-188.5 1527,-194.5 1527,-200.5 1527,-200.5 1527,-357.5 1527,-357.5 1527,-363.5 1521,-369.5 1515,-369.5 1515,-369.5 1204,-369.5 1204,-369.5 1198,-369.5 1192,-363.5 1192,-357.5 1192,-357.5 1192,-200.5 1192,-200.5 1192,-194.5 1198,-188.5 1204,-188.5"/>
<text text-anchor="middle" x="1359.5" y="-354.3" font-family="Times,serif" font-size="14.00">Question</text>
<polyline fill="none" stroke="black" points="1192,-346.5 1527,-346.5 "/>
<text text-anchor="start" x="1200" y="-331.3" font-family="Times,serif" font-size="14.00">id :bigint</text>
<text text-anchor="start" x="1200" y="-316.3" font-family="Times,serif" font-size="14.00">frage :character varying</text>
<text text-anchor="start" x="1200" y="-301.3" font-family="Times,serif" font-size="14.00">antwort1 :character varying</text>
<text text-anchor="start" x="1200" y="-286.3" font-family="Times,serif" font-size="14.00">antwort2 :character varying</text>
<text text-anchor="start" x="1200" y="-271.3" font-family="Times,serif" font-size="14.00">antwort3 :character varying</text>
<text text-anchor="start" x="1200" y="-256.3" font-family="Times,serif" font-size="14.00">antwort4 :character varying</text>
<text text-anchor="start" x="1200" y="-241.3" font-family="Times,serif" font-size="14.00">korrekt :character varying</text>
<text text-anchor="start" x="1200" y="-226.3" font-family="Times,serif" font-size="14.00">created_at :timestamp(6) without time zone</text>
<text text-anchor="start" x="1200" y="-211.3" font-family="Times,serif" font-size="14.00">updated_at :timestamp(6) without time zone</text>
<text text-anchor="start" x="1200" y="-196.3" font-family="Times,serif" font-size="14.00">kategorie :character varying</text>
</g>
<!-- Task -->
<g id="node5" class="node">
<title>Task</title>
<path fill="none" stroke="black" d="M851,-211C851,-211 1162,-211 1162,-211 1168,-211 1174,-217 1174,-223 1174,-223 1174,-335 1174,-335 1174,-341 1168,-347 1162,-347 1162,-347 851,-347 851,-347 845,-347 839,-341 839,-335 839,-335 839,-223 839,-223 839,-217 845,-211 851,-211"/>
<text text-anchor="middle" x="1006.5" y="-331.8" font-family="Times,serif" font-size="14.00">Task</text>
<polyline fill="none" stroke="black" points="839,-324 1174,-324 "/>
<text text-anchor="start" x="847" y="-308.8" font-family="Times,serif" font-size="14.00">id :bigint</text>
<text text-anchor="start" x="847" y="-293.8" font-family="Times,serif" font-size="14.00">user_id :bigint</text>
<text text-anchor="start" x="847" y="-278.8" font-family="Times,serif" font-size="14.00">title :character varying</text>
<text text-anchor="start" x="847" y="-263.8" font-family="Times,serif" font-size="14.00">body :text</text>
<text text-anchor="start" x="847" y="-248.8" font-family="Times,serif" font-size="14.00">status :integer</text>
<text text-anchor="start" x="847" y="-233.8" font-family="Times,serif" font-size="14.00">created_at :timestamp(6) without time zone</text>
<text text-anchor="start" x="847" y="-218.8" font-family="Times,serif" font-size="14.00">updated_at :timestamp(6) without time zone</text>
</g>
<!-- Task&#45;&gt;User -->
<g id="edge2" class="edge">
<title>Task&#45;&gt;User</title>
<path fill="none" stroke="#d68024" d="M940.59,-203.16C928,-188.86 914.76,-173.82 901.97,-159.3"/>
<polygon fill="#d68024" stroke="#d68024" points="940.71,-203.29 943.94,-213.76 944.01,-207.04 947.32,-210.79 947.32,-210.79 947.32,-210.79 944.01,-207.04 950.69,-207.82 940.71,-203.29 940.71,-203.29"/>
<polygon fill="#d68024" stroke="#d68024" points="901.95,-159.27 898.71,-148.79 898.64,-155.52 895.34,-151.76 895.34,-151.76 895.34,-151.76 898.64,-155.52 891.96,-154.74 901.95,-159.27 901.95,-159.27"/>
</g>
</g>
</svg>
