<?xml version="1.0" encoding="UTF-8" standalone="no"?>
<!DOCTYPE svg PUBLIC "-//W3C//DTD SVG 1.1//EN"
 "http://www.w3.org/Graphics/SVG/1.1/DTD/svg11.dtd">
<!-- Generated by graphviz version 2.43.0 (0)
 -->
<!-- Title: models_diagram Pages: 1 -->
<svg width="773pt" height="158pt"
 viewBox="0.00 0.00 773.50 158.00" xmlns="http://www.w3.org/2000/svg" xmlns:xlink="http://www.w3.org/1999/xlink">
<g id="graph0" class="graph" transform="scale(1 1) rotate(0) translate(4 154)">
<title>models_diagram</title>
<polygon fill="transparent" stroke="transparent" points="-4,4 -4,-154 769.5,-154 769.5,4 -4,4"/>
<!-- _diagram_info -->
<g id="node1" class="node">
<title>_diagram_info</title>
<text text-anchor="start" x="8" y="-135.6" font-family="Times,serif" font-size="13.00">Models diagram</text>
<text text-anchor="start" x="8" y="-121.6" font-family="Times,serif" font-size="13.00">Date: Jun 04 2025 &#45; 11:09</text>
<text text-anchor="start" x="8" y="-107.6" font-family="Times,serif" font-size="13.00">Migration version: 20250520101718</text>
<text text-anchor="start" x="8" y="-93.6" font-family="Times,serif" font-size="13.00">Generated by RailRoady 1.6.0</text>
<text text-anchor="start" x="8" y="-79.6" font-family="Times,serif" font-size="13.00">http://railroady.prestonlee.com</text>
</g>
<!-- ApplicationRecord -->
<g id="node2" class="node">
<title>ApplicationRecord</title>
<ellipse fill="none" stroke="black" cx="372.5" cy="-111" rx="95.58" ry="18"/>
<text text-anchor="middle" x="372.5" y="-107.3" font-family="Times,serif" font-size="14.00">ApplicationRecord</text>
</g>
<!-- Game -->
<g id="node3" class="node">
<title>Game</title>
<ellipse fill="none" stroke="black" cx="523.5" cy="-111" rx="37.89" ry="18"/>
<text text-anchor="middle" x="523.5" y="-107.3" font-family="Times,serif" font-size="14.00">Game</text>
</g>
<!-- User -->
<g id="node6" class="node">
<title>User</title>
<ellipse fill="none" stroke="black" cx="567.5" cy="-18" rx="33.29" ry="18"/>
<text text-anchor="middle" x="567.5" y="-14.3" font-family="Times,serif" font-size="14.00">User</text>
</g>
<!-- Game&#45;&gt;User -->
<g id="edge1" class="edge">
<title>Game&#45;&gt;User</title>
<path fill="none" stroke="#db638a" d="M535.99,-84.18C541.94,-71.87 549.04,-57.18 555,-44.86"/>
<polygon fill="#db638a" stroke="#db638a" points="535.92,-84.31 527.52,-91.35 533.75,-88.81 531.57,-93.31 531.57,-93.31 531.57,-93.31 533.75,-88.81 535.62,-95.27 535.92,-84.31 535.92,-84.31"/>
<polygon fill="#db638a" stroke="#db638a" points="555.13,-44.59 563.53,-37.54 557.3,-40.09 559.48,-35.58 559.48,-35.58 559.48,-35.58 557.3,-40.09 555.43,-33.63 555.13,-44.59 555.13,-44.59"/>
</g>
<!-- Question -->
<g id="node4" class="node">
<title>Question</title>
<ellipse fill="none" stroke="black" cx="713.5" cy="-111" rx="51.99" ry="18"/>
<text text-anchor="middle" x="713.5" y="-107.3" font-family="Times,serif" font-size="14.00">Question</text>
</g>
<!-- Task -->
<g id="node5" class="node">
<title>Task</title>
<ellipse fill="none" stroke="black" cx="611.5" cy="-111" rx="31.7" ry="18"/>
<text text-anchor="middle" x="611.5" y="-107.3" font-family="Times,serif" font-size="14.00">Task</text>
</g>
<!-- Task&#45;&gt;User -->
<g id="edge2" class="edge">
<title>Task&#45;&gt;User</title>
<path fill="none" stroke="#c82707" d="M599.01,-84.18C593.06,-71.87 585.96,-57.18 580,-44.86"/>
<polygon fill="#c82707" stroke="#c82707" points="599.08,-84.31 599.38,-95.27 601.25,-88.81 603.43,-93.31 603.43,-93.31 603.43,-93.31 601.25,-88.81 607.48,-91.35 599.08,-84.31 599.08,-84.31"/>
<polygon fill="#c82707" stroke="#c82707" points="579.87,-44.59 579.57,-33.63 577.7,-40.09 575.52,-35.58 575.52,-35.58 575.52,-35.58 577.7,-40.09 571.47,-37.54 579.87,-44.59 579.87,-44.59"/>
</g>
</g>
</svg>
